<svg width="180" height="179" viewBox="0 0 180 179" fill="none" xmlns="http://www.w3.org/2000/svg">
<path d="M48.1043 37C36.1043 39.8 29.9376 56.5 29.6043 62.5C29.6043 62.5 29.389 69.7334 27.1043 73.5C25.3858 76.3333 21.1043 79.5 21.1043 79.5C21.1043 79.5 24.1043 84 31.1043 83.5C28.6043 84.6667 23.1043 88.1 21.1043 92.5C19.1043 96.9 20.271 101.667 21.1043 103.5C21.6043 104.833 23.2043 107.9 25.6043 109.5C28.6043 111.5 32.6043 113.5 31.1043 116C29.6043 118.5 24.6043 118.5 24.6043 118.5C24.6043 118.5 27.1043 123.5 31.1043 123C31.771 124.833 32.1043 128 36.1043 131C40.1043 134 45.6043 133 45.6043 137C45.6043 141 40.6043 142 40.6043 142C40.6043 142 47.1043 146 53.1043 143C58.4229 140.341 60.4376 135.667 61.1043 134C63.6043 135.667 69.3043 139.3 72.1043 140.5C75.6043 142 85.6043 145 87.6043 144.5C89.6043 144 99.6043 144.5 103.104 143C105.904 141.8 117.938 135.5 123.604 132.5C124.804 136.5 132.604 137.833 135.604 138C133.604 133.5 134.604 130 134.604 130C134.604 130 137.104 131.5 139.104 132C150.104 134 154.604 125 154.604 125C154.604 125 150.104 126 148.104 125C144.104 123 145.604 118.5 146.104 116C146.987 111.587 151.104 108.5 154.604 106.5C159.3 103.817 161.104 99 159.104 93.5C157.832 90 154.637 88.3663 151.604 86.5C145.104 82.5 148.104 75 150.104 73.5C151.704 72.3001 153.771 69.6667 154.604 68.5C150.771 68.1667 144.104 66.1 148.104 60.5C153.104 53.5001 145.427 43.3231 143.604 41.5C139.104 37 136.104 35.5 132.104 34.5C128.505 33.6002 124.104 33.5 121.104 34L115.104 35C115.104 35 115.604 26 112.604 22.5C111.271 24.1667 107.104 27.7 103.104 28.5C99.1043 29.3 96.6043 29.25 93.6043 28.5C90.6043 27.75 88.2043 26.2 82.6043 27C77.0043 27.8 71.6043 39 69.6043 42.5C66.6043 40.8333 60.1043 34.2 48.1043 37Z" fill="#61341C"/>
<path d="M90.1016 45C107.098 45 129.879 54.0492 135.988 81.0928C136.938 85.2958 136.949 90.0281 136.701 94.9043C136.458 99.6914 135.952 104.744 135.952 109.199C135.952 115.354 131.667 123.8 123.632 130.775C115.657 137.697 104.163 143 90.1016 143C72.1295 143 55.3422 131.758 47.0205 118.22C46.0172 116.587 45.1876 114.631 44.4375 112.304L41.8379 90.4805V79.8379C42.1415 75.7855 44.0035 71.6225 46.1797 67.7715C48.4744 63.7108 51.5181 60.0527 55.1904 56.915C63.5839 49.7436 75.2767 45.2843 88.7891 45.0127L90.1016 45Z" fill="#FFF0F0" stroke="black" stroke-width="3"/>
<path d="M55.6043 99.5323L77.6043 100.5C74.9853 97.8118 68.1043 90.5 52.1043 90.5M89.1043 110.5C92.6043 110.5 97.2043 111.7 95.6043 114.5C94.0043 117.3 91.271 117.667 90.6043 117.5" stroke="black" stroke-width="3"/>
<path d="M112.943 82.6824C115.523 82.4031 118.832 82.6135 122.795 84.6688C123.692 85.1344 125.184 86.2538 126.339 87.1541C126.942 87.6243 127.497 88.0686 127.9 88.3953C128.102 88.5588 128.266 88.6931 128.381 88.7869C128.438 88.8338 128.483 88.8711 128.513 88.8963C128.529 88.9088 128.541 88.918 128.549 88.9246C128.553 88.9278 128.555 88.9307 128.557 88.9324L128.56 88.9344L129.585 89.784L128.866 90.9022C127.03 93.7584 125.766 97.3763 120.853 100.207C118.568 101.524 115.765 102.203 113.325 102.565L112.482 99.7166C113.519 99.2442 114.256 98.3384 114.714 97.0438C115.177 95.7311 115.317 94.1005 115.173 92.4149C115.029 90.7361 114.612 89.0964 114.049 87.7996C113.591 86.7455 113.107 86.0805 112.723 85.7332C112.261 85.7996 111.824 85.8824 111.409 85.9686L110.8 83.0311C111.424 82.9016 112.143 82.7691 112.943 82.6824Z" fill="white"/>
<path d="M113.798 82.844C115.141 83.545 116.13 85.0591 116.801 86.6038C117.503 88.221 117.992 90.1815 118.161 92.1594C118.329 94.1305 118.188 96.2137 117.542 98.0422C116.89 99.8887 115.69 101.552 113.726 102.447L113.534 102.534L113.325 102.566C110.608 102.969 108.182 103 107.104 103H95.7156L96.7527 100.849C97.3057 99.7018 98.4635 97.1348 99.8289 94.4778C101.187 91.8356 102.841 88.9196 104.466 87.0237C106.38 84.7902 108.885 83.4287 110.8 83.0315C111.424 82.902 112.143 82.7695 112.943 82.6829L113.395 82.634L113.798 82.844Z" fill="#BB7550"/>
<path d="M113.104 84.1741C112.37 84.2536 111.703 84.3757 111.104 84.5C109.537 84.8251 107.319 86 105.604 88C102.604 91.5 99.2603 99.1021 98.1043 101.5C100.604 101.5 105.839 101.5 107.104 101.5C108.153 101.5 110.494 101.469 113.104 101.082M113.104 84.1741C115.433 83.9219 118.439 84.0991 122.104 86C123.604 86.7779 127.604 90.0908 127.604 90.0908C125.604 93.2024 124.604 96.314 120.104 98.907C118.058 100.086 115.47 100.73 113.104 101.082M113.104 84.1741C116.604 86 119.104 98.3469 113.104 101.082" stroke="black" stroke-width="3"/>
<path d="M75.6043 120.5C78.1043 123 83.271 126.167 85.1043 128C88.271 126.833 95.0043 124.6 96.6043 125" stroke="black" stroke-width="3"/>
<path d="M95.1043 80C98.6043 75.0001 106.104 71.5 110.604 73" stroke="black" stroke-width="3"/>
<path d="M79.6043 81.5C73.6043 73 64.6043 73 64.6043 73" stroke="black" stroke-width="3"/>
<path d="M82.6043 47C77.4043 47.4 75.271 52.3334 74.1043 56C73.1043 54.8334 71.7376 53.137 69.6043 52.5C65.9908 51.4211 62.6043 52.5 59.6043 55.5C56.6043 58.5 54.1043 64 53.6043 66C53.1043 67.6667 52.7381 70.3344 53.6043 72.5C54.0043 73.5 55.1043 76 57.6043 77C56.1043 78.5 53.4327 79.5 50.6043 79.5C46.6043 79.5 44.6885 77.7823 43.1043 77L37.6043 73.5L56.1043 48.5L78.1043 41.5H104.604L130.604 54L136.104 69L132.104 71.5C130.104 73.5 127.624 73.7669 124.604 73.5C122.328 73.2988 119.104 71.5 119.104 71.5C120.604 70 123.104 68 124.604 66C127.004 62.8 120.522 54.8545 115.104 53.5C111.104 52.5 109.604 56.5 111.104 58.5C112.604 60.5 114.604 60.5 117.104 60.5C116.438 61.5 113.004 65.2 108.604 66C100.604 67.2 95.6043 65 93.6043 60.5L91.1043 53.5C91.1043 53.5 89.1043 46.5 82.6043 47Z" fill="#61341C"/>
<path d="M134 72C132.5 73.5 127.587 75.0965 124.604 74.5C122.104 74 119.104 71.5 119.104 71.5C121.104 70.5 122.318 69.6437 123.604 67.5C126.604 62.5 120.522 55.3545 115.104 54C111.104 53 109.604 56.5 110.104 58.5C110.604 60.5 113.104 61.5 115.604 61.5C115.104 63 113.004 65.7 108.604 66.5C100.604 67.7 95.6043 65 93.6043 60.5L91.1043 53.5C91.1043 53.5 89.1043 46.5 82.6043 47C77.4043 47.4 75.271 52.3334 74.1043 56C73.1043 54.8334 71.7376 53.137 69.6043 52.5C65.9908 51.4211 62.6043 52.5 59.6043 55.5C56.6043 58.5 54.1043 64 53.6043 66C53.1043 67.6667 52.7381 70.3344 53.6043 72.5C54.0043 73.5 55.1043 76 57.6043 77C56.1043 78.5 52.9327 80.5 50.1043 80.5C46.1043 80.5 42.5 78 41 77.5M61.5 134C60.8333 135.667 58.4229 140.341 53.1043 143C47.1043 146 40.6043 142 40.6043 142C40.6043 142 45.6043 141 45.6043 137C45.6043 133 40.1043 134 36.1043 131C32.1043 128 31.771 124.833 31.1043 123C27.1043 123.5 24.6043 118.5 24.6043 118.5C24.6043 118.5 29.6043 118.5 31.1043 116C32.6043 113.5 28.6043 111.5 25.6043 109.5C23.2043 107.9 21.6043 104.833 21.1043 103.5C20.271 101.667 19.1043 96.9 21.1043 92.5C23.1043 88.1 28.6043 84.6667 31.1043 83.5C24.1043 84 21.1043 77 21.1043 77C21.1043 77 25.3858 76.3333 27.1043 73.5C29.389 69.7334 29.6043 62.5 29.6043 62.5C29.9376 56.5 36.6043 39.3 48.6043 36.5C60.6043 33.7 66.6043 40.8333 69.6043 42.5C71.6043 39 74.1043 30 81.6043 27.5C86.9709 25.7111 90.6043 27.75 93.6043 28.5C96.6043 29.25 99.1043 29.3 103.104 28.5C107.104 27.7 111.271 22.6667 112.604 21C116.604 25 115.104 35 115.104 35C115.104 35 118.104 34.5 121.104 34C124.104 33.5 128.505 33.6002 132.104 34.5C136.104 35.5 139.104 37 143.604 41.5C145.427 43.3231 153.104 53.5001 148.104 60.5C144.104 66.1 150.771 68.1667 154.604 68.5C153.771 69.6667 151.704 72.3001 150.104 73.5C148.104 75 145.104 82.5 151.604 86.5C154.637 88.3663 157.832 90 159.104 93.5C161.104 99 159.3 103.817 154.604 106.5C151.104 108.5 146.987 111.587 146.104 116C145.604 118.5 144.104 123 148.104 125C150.104 126 154.604 125 154.604 125C154.604 125 150.104 134 139.104 132C137.104 131.5 134.604 130 134.604 130C134.604 130 133.604 133.5 135.604 138C132.604 137.833 123.7 135 122.5 131" stroke="black" stroke-width="3"/>
<ellipse cx="116.104" cy="113" rx="10.5" ry="6.5" fill="#7070FF"/>
<ellipse cx="64.1043" cy="113" rx="10.5" ry="6.5" fill="#7070FF"/>
<path d="M112.104 95C112.104 95 109.604 94.7881 109.604 93.5C109.604 92.2119 112.104 92 112.104 92C112.104 92 112.316 89.5 113.604 89.5C114.892 89.5 115.104 92 115.104 92C115.104 92 117.604 92.2119 117.604 93.5C117.604 94.7881 115.104 95 115.104 95C115.104 95 114.892 97.5 113.604 97.5C112.316 97.5 112.104 95 112.104 95Z" fill="#FFE2B0"/>
<ellipse cx="90" cy="89.5" rx="85" ry="84.5" stroke="#A0A0FF" stroke-width="9"/>
</svg>
